<svg id="Layer_1" data-name="Layer 1" xmlns="http://www.w3.org/2000/svg" viewBox="0 0 1200 400"><title>Artboard 1</title><rect width="1200" height="400" style="fill:#f05349"/><path d="M720.79,174.29c-1.61-1.81-23.9-29.71-27.82-34.44s-5.84-3.88-8.26-3.52-30.62,5.09-33.89,5.64-5.34,1.86-3.32,4.68c1.79,2.51,20.33,28.79,24.41,34.58l-73.7,17.66-58.61-98c-2.33-3.46-2.82-4.67-8.13-4.43s-46,3.62-48.88,3.86-6.08,1.53-3.18,8.37S528.5,215.06,529.79,218s4.63,7.59,12.47,5.71c8-1.93,35.87-9.2,51.09-13.18,8,14.56,24.43,44.09,27.47,48.32,4,5.65,6.83,4.71,13,2.83,4.85-1.47,75.92-27,79.13-28.35s5.18-2.26,3-5.46c-1.59-2.35-20.34-27.47-30.16-40.61,6.73-1.79,30.64-8.16,33.19-8.85C722,177.56,722.4,176.1,720.79,174.29Zm-134,27.39c-.88.19-42.16,10.07-44.36,10.57s-2.2.25-2.45-.5-49.08-101.43-49.76-102.69-.64-2.26,0-2.26,39-3.43,40.34-3.5,1.21.21,1.71,1.07l55,95C588.26,201,587.69,201.49,586.81,201.68ZM703.19,223.5c.66,1,1.32,1.7-.75,2.45s-69.86,23.63-71.18,24.2-2.35.75-4-1.69-23.75-40.62-23.75-40.62l71.86-18.7c1.79-.56,2.35-.94,3.48.85S702.54,222.46,703.19,223.5Zm4.61-51c-1.61.35-28,6.9-28,6.9l-21.58-29.61c-.6-.86-1.11-1.71.4-1.91s26-4.63,27.14-4.88,2.06-.55,3.42,1.31,20,25.48,20.72,26.39S709.41,172.12,707.8,172.48Z" style="fill:#fff"/></svg>