<svg id="Layer_1" data-name="Layer 1" xmlns="http://www.w3.org/2000/svg" xmlns:xlink="http://www.w3.org/1999/xlink" viewBox="0 0 1200 400"><defs><radialGradient id="radial-gradient" cx="528.93" cy="162.12" r="149.01" gradientTransform="translate(26.52 -9.31)" gradientUnits="userSpaceOnUse"><stop offset="0" stop-color="#fff"/><stop offset="0.5" stop-color="#4c6b97"/><stop offset="1" stop-color="#231f20"/></radialGradient></defs><title>php</title><rect width="1200" height="400" style="fill:#fff"/><ellipse cx="600.8" cy="191.52" rx="113.48" ry="59.69" style="fill:url(#radial-gradient)"/><ellipse cx="600.8" cy="191.52" rx="109.05" ry="55.26" style="fill:#6181b6"/><path d="M622.89,209.38l5.41-27.84c1.22-6.28.21-11-3-13.93s-8.42-4.26-16.2-4.26h-9.37l2.68-13.79a1.77,1.77,0,0,0-1.74-2.11H587.73a1.77,1.77,0,0,0-1.74,1.43l-5.74,29.55a16.62,16.62,0,0,0-3.87-8.54c-3.79-4.34-9.79-6.54-17.83-6.54H533.48a1.77,1.77,0,0,0-1.74,1.43l-11.63,59.82a1.77,1.77,0,0,0,1.74,2.11h13a1.77,1.77,0,0,0,1.74-1.43l2.81-14.47h9.7a41.88,41.88,0,0,0,12.71-1.64,24.87,24.87,0,0,0,9.33-5.59,28.68,28.68,0,0,0,5.51-6.84l-2.32,12a1.77,1.77,0,0,0,1.74,2.11H589a1.77,1.77,0,0,0,1.74-1.43l6.38-32.84H606c3.78,0,4.89.75,5.19,1.08s.84,1.34.21,4.62l-5.14,26.47a1.77,1.77,0,0,0,1.74,2.11h13.13A1.77,1.77,0,0,0,622.89,209.38Zm-59.94-23c-.81,4.17-2.34,7.15-4.55,8.85s-5.83,2.6-10.66,2.6H542l4.18-21.49h7.47c5.49,0,7.7,1.17,8.58,2.16C563.42,179.86,563.68,182.59,562.95,186.38Z" style="fill:#fff"/><path d="M678.18,169.9c-3.79-4.34-9.79-6.54-17.83-6.54H635.29a1.77,1.77,0,0,0-1.74,1.43l-11.63,59.82a1.77,1.77,0,0,0,1.74,2.11h13a1.77,1.77,0,0,0,1.74-1.43l2.81-14.47h9.7a41.88,41.88,0,0,0,12.71-1.64,24.87,24.87,0,0,0,9.33-5.59A27.76,27.76,0,0,0,681.7,188C683.18,180.35,682,174.27,678.18,169.9Zm-13.52,16.49c-.81,4.17-2.34,7.15-4.55,8.85s-5.83,2.6-10.66,2.6h-5.78l4.18-21.49h7.47c5.49,0,7.7,1.17,8.58,2.16C665.14,179.86,665.4,182.59,664.66,186.38Z" style="fill:#fff"/><path d="M553.61,174.57q7.43,0,9.9,2.74t1.18,9.41q-1.35,6.95-5.21,9.91t-11.74,3h-7.93l4.87-25Zm-31.75,50.38h13L538,209h11.16a40,40,0,0,0,12.16-1.55,23,23,0,0,0,8.67-5.2,26,26,0,0,0,8.18-14.65Q580.22,177,575,171.06t-16.49-5.94H533.48Z" style="fill:#000004"/><path d="M587.73,149.22h12.93l-3.09,15.9h11.52q10.87,0,15,3.79t2.48,12.29L621.15,209H608l5.14-26.47q.88-4.52-.65-6.16T606,174.77H595.69L589,209H576.1Z" style="fill:#000004"/><path d="M655.32,174.57q7.43,0,9.9,2.74t1.18,9.41q-1.35,6.95-5.21,9.91t-11.74,3h-7.93l4.87-25Zm-31.75,50.38h13l3.09-15.9h11.16A40,40,0,0,0,663,207.49a23,23,0,0,0,8.67-5.2,26,26,0,0,0,8.18-14.65q2.07-10.64-3.12-16.57t-16.49-5.94H635.2Z" style="fill:#000004"/></svg>