<svg id="Layer_1" data-name="Layer 1" xmlns="http://www.w3.org/2000/svg" viewBox="0 0 1200 400"><title>tips_and_tricks</title><rect width="1200" height="400" style="fill:#f1592b"/><path d="M379.53,235.65a5.75,5.75,0,0,0,1,3.18l3.07,4.62a5.75,5.75,0,0,0,4.79,2.57h11.09a5.75,5.75,0,0,0,4.79-2.57l3.07-4.62a5.75,5.75,0,0,0,1-3.18v-6.89H379.52Zm-17.26-50a31.46,31.46,0,0,0,7.83,20.81c3,3.39,7.61,10.47,9.38,16.44l0,.14h28.8l0-.14c1.77-6,6.41-13,9.38-16.44a31.63,31.63,0,1,0-55.44-20.81Zm31.63-14.38a14.4,14.4,0,0,0-14.38,14.38,2.88,2.88,0,0,1-5.75,0,20.15,20.15,0,0,1,20.13-20.13,2.88,2.88,0,0,1,0,5.75Z" style="fill:#fff"/><text transform="translate(441.89 217.75)" style="font-size:54.237281799316406px;fill:#fff;font-family:UbuntuMono-Bold, Ubuntu Mono;font-weight:700">Tips &amp; tricks..</text></svg>